<?xml version="1.0" encoding="utf-8"?>
<!DOCTYPE svg PUBLIC "-//W3C//DTD SVG 1.1//EN" "http://www.w3.org/Graphics/SVG/1.1/DTD/svg11.dtd">
<svg version="1.1" xmlns="http://www.w3.org/2000/svg" xmlns:xlink="http://www.w3.org/1999/xlink" width="12px" height="12px" x="0px" y="0px" viewBox="0 0 1000 1000" enable-background="new 0 0 1000 1000" xml:space="preserve">

<g><path style=" stroke:none;fill-rule:nonzero;fill:rgb(156,163,181);fill-opacity:1;" d="M941,255H59c-27.1,0-49-21.9-49-49c0-27.1,21.9-49,49-49h882c27.1,0,49,21.9,49,49C990,233.1,968.1,255,941,255z M59.1,451.6h678.1c27.1,0,49.1,22,49.1,49.1c0,27.1-22,49.1-49.1,49.1H59.1c-27.1,0-49.1-22-49.1-49.1C10,473.6,32,451.6,59.1,451.6z M59,745h849.8c27.1,0,49,21.9,49,49c0,27.1-21.9,49-49,49H59c-27.1,0-49-21.9-49-49C10,766.9,31.9,745,59,745z"/></g>
</svg>