<?xml version="1.0" encoding="utf-8"?>
<!DOCTYPE svg PUBLIC "-//W3C//DTD SVG 1.1//EN" "http://www.w3.org/Graphics/SVG/1.1/DTD/svg11.dtd">
<svg version="1.1" xmlns="http://www.w3.org/2000/svg" xmlns:xlink="http://www.w3.org/1999/xlink" width="24px" height="21px" x="0px" y="0px" viewBox="0 0 1000 1000" enable-background="new 0 0 1000 1000" xml:space="preserve">

<g><path style=" stroke:none;fill-rule:nonzero;fill:rgb(156,163,181);fill-opacity:1;" d="M232.3,990l-82.9-220.6c-35.1-6-67.4-21.9-92.4-45.7C26.7,694.9,10,657,10,617.3V164.9C10,79.5,86.9,10,181.4,10h637.2C913.1,10,990,79.5,990,164.9v452.4c0,85.4-76.9,154.9-171.4,154.9l-381.8,0c-2.2,0.4-27.9,6.5-87.8,70.8c-37.2,39.9-67.6,80.7-67.9,81.1L232.3,990z M181.4,67.1c-61.9,0-112.3,43.8-112.3,97.7v452.4c0,50.9,45.6,93.7,103.9,97.5l19.2,1.2l57.6,153.2c13.2-16.6,33.1-40.7,55.4-64.6c56.3-60.3,99.2-89.6,131.2-89.6h382.3c61.9,0,112.3-43.8,112.3-97.7V164.9c0-53.9-50.4-97.7-112.3-97.7H181.4z"/></g>
</svg>