<?xml version="1.0" encoding="utf-8"?>
<!DOCTYPE svg PUBLIC "-//W3C//DTD SVG 1.1//EN" "http://www.w3.org/Graphics/SVG/1.1/DTD/svg11.dtd">
<svg version="1.1" xmlns="http://www.w3.org/2000/svg" xmlns:xlink="http://www.w3.org/1999/xlink" width="24px" height="22px" x="0px" y="0px" viewBox="0 0 1000 1000" enable-background="new 0 0 1000 1000" xml:space="preserve">
<g><path style=" stroke:none;fill-rule:nonzero;fill:rgb(156,163,181);fill-opacity:1;" d="M187.6,78.7h624.8c98.1,0,177.6,79.6,177.6,177.7v354c0,98.1-79.5,177.7-177.6,177.7H187.6c-46.4,0-107.7,127.9-139.3,98.8c-6.1-5.6,7.3-157.4,2-163.8C25.1,692.5,10,653.2,10,610.4V256.4C9.9,158.3,89.5,78.7,187.6,78.7z M101.6,255v355.4c0,31.5-36.7,200.8-11.7,216.6c14.1,8.8,167.3-128.3,184.9-128.3l537.5,0.5c49,0,88.8-39.8,88.8-88.8V255c0-49-39.8-88.9-88.8-88.9H190.4C141.3,166.2,101.6,205.9,101.6,255z"/><path d="M102.5,876.2V569.1c0-24.9-20.2-45.1-45.1-45.1c-24.9,0-45.1,20.2-45.1,45.1v307.2c0,24.9,20.2,45.1,45.1,45.1C82.3,921.3,102.5,901.2,102.5,876.2z"/><path d="M90.3,905.7l220.1-131.2c17.6-17.6,17.6-46.2,0-63.8c-17.6-17.6-46.2-17.6-63.8,0L26.6,842c-17.6,17.6-17.6,46.2,0,63.8C44.2,923.3,72.7,923.3,90.3,905.7z"/><path d="M441.4,821.9"/></g>
</svg>