<?xml version="1.0"?>
<!--Icons from directory ""-->
<svg xmlns="http://www.w3.org/2000/svg" width="24" height="213" viewBox="0 0 24 213"><svg width="20" height="20" id="calendar-icon" y="0"><path d="M1 4c0-1.1.9-2 2-2h14a2 2 0 0 1 2 2v14a2 2 0 0 1-2 2H3a2 2 0 0 1-2-2V4zm2 2v12h14V6H3zm2-6h2v2H5V0zm8 0h2v2h-2V0zM5 9h2v2H5V9zm0 4h2v2H5v-2zm4-4h2v2H9V9zm0 4h2v2H9v-2zm4-4h2v2h-2V9zm0 4h2v2h-2v-2z" fill="#9ca3b5"/></svg><svg width="10" height="10" viewBox="0 0 20 20" id="checkmark-icon" y="20"><path d="M0 11l2-2 5 5L18 3l2 2L7 18z" fill="#9ca3b5"/></svg><svg width="20" height="20" id="cheveron-down-icon" y="30"><path d="M9.293 12.95l.707.707L15.657 8l-1.414-1.414L10 10.828 5.757 6.586 4.343 8z" fill="#9ca3b5"/></svg><svg width="15" height="15" viewBox="0 0 20 20" id="cheveron-right-icon" y="50"><path d="M12.95 10.707l.707-.707L8 4.343 6.586 5.757 10.828 10l-4.242 4.243L8 15.657l4.95-4.95z" fill="#efefef"/></svg><svg width="20" height="20" viewBox="0 0 1000 1000" id="clip-icon" y="65"><path d="M721.5 51.59c-33.52 6.38-61.45 17.76-89.98 36.31-14.76 9.78-56.26 50.47-294.08 287.89-152.43 152.03-282.5 283.3-289.09 291.48-14.16 17.36-27.73 44.09-33.72 66.84-6.19 22.74-6.19 63.25 0 85.79 24.74 91.18 112.92 145.84 204.9 126.89 21.15-4.39 47.48-15.96 65.24-28.93 6.78-4.79 98.56-95.36 204.1-201.1 176.37-176.77 192.33-193.34 198.91-206.1 10.77-21.15 13.97-36.11 12.97-60.85-1.4-30.92-10.97-54.07-31.92-76.01-20.55-21.35-46.49-33.32-76.81-35.11-23.74-1.4-39.1 1.6-60.45 11.77l-16.96 7.98L381.54 491.5C238.09 634.75 241.88 630.56 245.07 648.12c1.6 8.38 9.18 17.96 17.56 22.34 7.18 3.79 21.35 3.99 27.93.8 2.39-1.4 63.04-60.65 134.27-131.68 114.32-113.91 130.88-129.67 139.66-132.87 20.95-7.98 42.5-2.99 57.46 12.97 16.16 17.16 19.15 39.1 8.38 60.05-3.39 6.38-60.05 64.24-193.93 197.71-169.58 169.19-190.53 189.34-201.7 194.93-33.72 16.56-71.62 15.96-106.14-1.6-13.17-6.58-34.32-28.73-41.7-43.49-16.36-32.52-16.36-67.63 0-100.75 5.59-10.97 35.91-42.3 287.69-294.48 216.67-216.87 285.1-284.1 296.27-291.68 27.53-18.16 56.26-26.33 92.17-26.14 48.28.4 95.57 23.34 125.69 60.85 11.77 14.76 26.34 43.29 31.32 61.25 4.99 18.75 4.99 65.84-.2 83.79-5.39 17.96-13.17 35.31-23.14 50.08-5.79 8.58-81.2 85.59-229.63 234.22-196.71 197.12-221.05 222.26-222.25 228.84-2.79 15.36 3.99 29.73 17.16 36.51 7.18 3.79 22.34 3.79 29.33.2 2.99-1.6 105.14-102.95 227.04-225.05C909.04 454 941.56 420.48 951.54 405.32c77.01-117.51 34.32-273.13-91.77-333.78C827.25 55.78 804.9 50.59 767 49.59c-21.16-.4-35.52.2-45.5 2z" fill="#505f79"/></svg><svg width="15" height="15" viewBox="0 0 20 20" id="close-icon-dark" y="85"><path d="M10 8.586L2.929 1.515 1.515 2.929 8.586 10l-7.071 7.071 1.414 1.414L10 11.414l7.071 7.071 1.414-1.414L11.414 10l7.071-7.071-1.414-1.414L10 8.586z"/></svg><svg width="10" height="10" viewBox="0 0 20 20" id="close-icon" y="100"><path d="M10 8.586L2.929 1.515 1.515 2.929 8.586 10l-7.071 7.071 1.414 1.414L10 11.414l7.071 7.071 1.414-1.414L11.414 10l7.071-7.071-1.414-1.414L10 8.586z" fill="#9ca3b5"/></svg><svg width="10" height="10" viewBox="0 0 20 20" id="close-outline-icon" y="110"><path d="M2.93 17.07A10 10 0 1 1 17.07 2.93 10 10 0 0 1 2.93 17.07zm1.41-1.41A8 8 0 1 0 15.66 4.34 8 8 0 0 0 4.34 15.66zm9.9-8.49L11.41 10l2.83 2.83-1.41 1.41L10 11.41l-2.83 2.83-1.41-1.41L8.59 10 5.76 7.17l1.41-1.41L10 8.59l2.83-2.83 1.41 1.41z" fill="#9ca3b5"/></svg><svg width="24" height="21" viewBox="0 0 1000 1000" id="comment-icon" y="120"><path d="M232.3 990l-82.9-220.6c-35.1-6-67.4-21.9-92.4-45.7-30.3-28.8-47-66.7-47-106.4V164.9C10 79.5 86.9 10 181.4 10h637.2C913.1 10 990 79.5 990 164.9v452.4c0 85.4-76.9 154.9-171.4 154.9H436.8c-2.2.4-27.9 6.5-87.8 70.8-37.2 39.9-67.6 80.7-67.9 81.1L232.3 990zM181.4 67.1c-61.9 0-112.3 43.8-112.3 97.7v452.4c0 50.9 45.6 93.7 103.9 97.5l19.2 1.2 57.6 153.2c13.2-16.6 33.1-40.7 55.4-64.6 56.3-60.3 99.2-89.6 131.2-89.6h382.3c61.9 0 112.3-43.8 112.3-97.7V164.9c0-53.9-50.4-97.7-112.3-97.7H181.4z" fill="#9ca3b5"/></svg><svg width="20" height="20" viewBox="0 0 1000 1000" id="history-icon" y="141"><path d="M500 11.5c-164.2 0-309.3 80.7-398.1 204.4v-82.3c0-25.3-20.6-45.8-45.9-45.8s-46 20.5-46 45.8v183.2c0 25.3 20.6 45.8 45.9 45.8H255c25.4 0 45.9-20.5 45.9-45.8 0-25.3-20.6-45.8-45.9-45.8h-79.9C247.2 169.4 365.7 103.1 500 103.1c219.9 0 398.1 177.7 398.1 396.9S719.9 896.9 500 896.9c-185.3 0-340.6-126.4-385-297.4l-.8.2c-6.2-18-22.8-31.1-43-31.1-25.4 0-45.9 20.5-45.9 45.8 0 4.5 1.4 8.6 2.6 12.7l-.5.2c.3 1.1.9 2.1 1.2 3.2.3.9.6 1.8 1 2.6 58.2 205 246.3 355.4 470.4 355.4 270.6 0 490-218.7 490-488.5S770.6 11.5 500 11.5zm0 206.1c-25.4 0-45.9 20.5-45.9 45.8v274.8c0 25.3 20.6 45.8 45.9 45.8h199.1c25.4 0 45.9-20.5 45.9-45.8 0-25.3-20.6-45.8-45.9-45.8H546v-229c-.1-25.3-20.6-45.8-46-45.8z" fill="#505f79"/></svg><svg width="20" height="20" viewBox="0 0 1000 1000" id="lock-icon" y="161"><g fill="#9ca3b5"><path d="M847.1 415.7V358c0-46.8-9.2-92.3-27.3-135.1-17.5-41.3-42.5-78.5-74.4-110.3-31.9-31.9-69-56.9-110.3-74.4C592.3 20 546.8 10.9 500 10.9s-92.3 9.2-135.1 27.3c-41.3 17.5-78.5 42.5-110.3 74.4-31.9 31.9-56.9 69-74.4 110.3-18.1 42.8-27.3 88.3-27.3 135.1v57.8c-50 5-89.2 47.3-89.2 98.6V890c0 54.6 44.5 99.1 99.1 99.1h674.4c54.6 0 99.1-44.5 99.1-99.1V514.4c0-51.4-39.2-93.7-89.2-98.7zM136.7 890V514.4c0-10.9 6.7-20.2 16.2-24.1 3.1-1.3 6.4-2 9.9-2H837.2c3.5 0 6.9.7 9.9 2 9.5 3.9 16.2 13.2 16.2 24.1V890c0 14.4-11.7 26.1-26.1 26.1H162.8c-14.4 0-26.1-11.7-26.1-26.1zm89.2-532c0-151.4 122.7-274.1 274.1-274.1 151.4 0 274.1 122.7 274.1 274.1v57.3H225.9V358z"/><path d="M837.2 990H162.8c-55.1 0-100-44.8-100-100V514.4c0-24.9 9.3-48.8 26.1-67.2 16.5-18.1 38.9-29.5 63.1-32.1v-57c0-46.9 9.2-92.5 27.4-135.5 17.5-41.4 42.6-78.7 74.5-110.6 31.9-31.9 69.1-57 110.6-74.5C407.5 19.2 453.1 10 500 10s92.5 9.2 135.5 27.4c41.4 17.5 78.7 42.6 110.6 74.5s57 69.1 74.5 110.6C838.8 265.4 848 311 848 358v57c24.2 2.6 46.6 14 63.1 32.1 16.8 18.5 26.1 42.3 26.1 67.2V890c0 55.2-44.9 100-100 100zM500 11.7c-46.7 0-92.1 9.2-134.8 27.2-41.2 17.4-78.3 42.4-110 74.2-31.8 31.8-56.7 68.8-74.2 110-18.1 42.7-27.2 88.1-27.2 134.8v58.5l-.8.1c-24.1 2.4-46.4 13.6-62.8 31.7-16.5 18.1-25.6 41.6-25.6 66.1V890c0 54.2 44.1 98.3 98.3 98.3h674.4c54.2 0 98.3-44.1 98.3-98.3V514.4c0-24.5-9.1-48-25.6-66.1-16.4-18-38.7-29.3-62.8-31.7l-.8-.1V358c0-46.7-9.2-92.1-27.2-134.8-17.4-41.2-42.4-78.3-74.2-110-31.8-31.8-68.8-56.7-110-74.2-42.9-18.1-88.3-27.3-135-27.3zM837.2 917H162.8c-14.8 0-26.9-12.1-26.9-26.9V514.4c0-11 6.6-20.7 16.7-24.9 3.3-1.3 6.7-2 10.2-2h674.4c3.5 0 7 .7 10.2 2 10.1 4.2 16.7 14 16.7 24.9V890c0 14.9-12 27-26.9 27zM162.8 489.1c-3.3 0-6.5.6-9.6 1.9-9.5 3.9-15.6 13.1-15.6 23.3V890c0 13.9 11.3 25.2 25.2 25.2h674.4c13.9 0 25.2-11.3 25.2-25.2V514.4c0-10.3-6.1-19.4-15.6-23.3-3-1.3-6.3-1.9-9.6-1.9H162.8zm612.2-73H225.1V358c0-151.6 123.3-275 274.9-275 151.6 0 275 123.4 275 275v58.1zm-548.2-1.7h546.5V358c0-150.7-122.6-273.2-273.2-273.2S226.8 207.3 226.8 358v56.4z"/><g><path d="M500 525.4c-58.5 0-106.1 47.6-106.1 106.2 0 45.4 28.7 84.2 68.8 99.4v83.7c0 8.8 3.1 16.9 8.3 23.2 6.7 8.1 16.8 13.3 28.2 13.3 11.3 0 21.3-5.1 28-13.1 5.3-6.3 8.5-14.5 8.5-23.4v-83c41-14.7 70.4-54 70.4-100 .1-58.7-47.6-106.3-106.1-106.3zm0 139.3c-18.3 0-33.1-14.8-33.1-33.1s14.8-33.1 33.1-33.1 33.1 14.8 33.1 33.1-14.8 33.1-33.1 33.1z"/><path d="M499.2 852c-11.2 0-21.7-4.9-28.8-13.6-5.5-6.7-8.5-15.1-8.5-23.8v-83.1c-41.2-15.8-68.8-55.9-68.8-100 0-59 48-107 107-107s107 48 107 107c0 44.8-28.3 85.2-70.4 100.6v82.5c0 8.7-3.1 17.2-8.7 23.9-7.2 8.6-17.7 13.5-28.8 13.5zm.8-325.7c-58.1 0-105.3 47.2-105.3 105.3 0 43.6 27.4 83.2 68.3 98.6l.6.2v84.2c0 8.3 2.9 16.3 8.2 22.7 6.8 8.2 16.8 13 27.5 13 10.6 0 20.6-4.7 27.4-12.8 5.3-6.4 8.3-14.5 8.3-22.8V731l.6-.2c41.8-15 69.9-54.8 69.9-99.2-.2-58.1-47.4-105.3-105.5-105.3zm0 139.3c-18.7 0-34-15.2-34-34 0-18.7 15.2-34 34-34 18.7 0 34 15.2 34 34 0 18.7-15.3 34-34 34zm0-66.3c-17.8 0-32.3 14.5-32.3 32.3 0 17.8 14.5 32.3 32.3 32.3 17.8 0 32.3-14.5 32.3-32.3 0-17.8-14.5-32.3-32.3-32.3z"/></g></g></svg><svg width="20" height="20" viewBox="0 0 1000 1000" id="menu-icon-circle" y="181"><path d="M10 500c0-54.1 43.9-98 98-98s98 43.9 98 98-43.9 98-98 98-98-43.9-98-98zm392 0c0-54.1 43.9-98 98-98s98 43.9 98 98-43.9 98-98 98-98-43.9-98-98zm392 0c0-54.1 43.9-98 98-98s98 43.9 98 98-43.9 98-98 98-98-43.9-98-98z" fill="#505f79"/></svg><svg width="12" height="12" viewBox="0 0 1000 1000" id="project-menu-icon" y="201"><path d="M941 255H59c-27.1 0-49-21.9-49-49s21.9-49 49-49h882c27.1 0 49 21.9 49 49s-21.9 49-49 49zM59.1 451.6h678.1c27.1 0 49.1 22 49.1 49.1s-22 49.1-49.1 49.1H59.1c-27.1 0-49.1-22-49.1-49.1s22-49.1 49.1-49.1zM59 745h849.8c27.1 0 49 21.9 49 49s-21.9 49-49 49H59c-27.1 0-49-21.9-49-49s21.9-49 49-49z" fill="#9ca3b5"/></svg></svg>
