<?xml version="1.0" encoding="utf-8"?>

<!DOCTYPE svg PUBLIC "-//W3C//DTD SVG 1.1//EN" "http://www.w3.org/Graphics/SVG/1.1/DTD/svg11.dtd">
<svg version="1.1" xmlns="http://www.w3.org/2000/svg" xmlns:xlink="http://www.w3.org/1999/xlink" width="12px" height="12px" x="0px" y="0px" viewBox="0 0 1000 1000" enable-background="new 0 0 1000 1000" xml:space="preserve">
<g>
<path style=" stroke:none;fill-rule:nonzero;fill:rgb(156,163,181);fill-opacity:1;" d="M990,220c0,38.6-31.4,70-70,70H80c-38.6,0-70-31.4-70-70l0,0c0-38.6,31.4-70,70-70h840C958.6,150,990,181.4,990,220L990,220z"/>
<path style=" stroke:none;fill-rule:nonzero;fill:rgb(156,163,181);fill-opacity:1;" d="M710,500c0,38.6-31.4,70-70,70H80c-38.6,0-70-31.4-70-70l0,0c0-38.6,31.4-70,70-70h560C678.6,430,710,461.4,710,500L710,500z"/>
<path style=" stroke:none;fill-rule:nonzero;fill:rgb(156,163,181);fill-opacity:1;" d="M500,780c0,38.6-31.4,70-70,70H80c-38.6,0-70-31.4-70-70l0,0c0-38.6,31.4-70,70-70h350C468.6,710,500,741.4,500,780L500,780z"/></g>
</svg>