<?xml version="1.0" encoding="utf-8"?>
<!DOCTYPE svg PUBLIC "-//W3C//DTD SVG 1.1//EN" "http://www.w3.org/Graphics/SVG/1.1/DTD/svg11.dtd">
<svg version="1.1" xmlns="http://www.w3.org/2000/svg" xmlns:xlink="http://www.w3.org/1999/xlink" width="20px" height="20px" x="0px" y="0px" viewBox="0 0 1000 1000" enable-background="new 0 0 1000 1000" xml:space="preserve">
<g><g style=" stroke:none;fill-rule:nonzero;fill:rgb(80,95,121);fill-opacity:1;" transform="translate(0.000000,511.000000) scale(0.100000,-0.100000)"><path d="M7215,4594.1c-335.2-63.8-614.5-177.6-899.8-363.1c-147.6-97.8-562.6-504.7-2940.8-2878.9c-1524.3-1520.3-2825-2833-2890.9-2914.8c-141.6-173.6-277.3-440.9-337.2-668.4c-61.9-227.4-61.9-632.5,0-857.9c247.4-911.8,1129.2-1458.4,2049-1268.9c211.5,43.9,474.8,159.6,652.4,289.3c67.8,47.9,985.6,953.6,2041,2011C6652.4-289.9,6812-124.2,6877.8,3.4c107.7,211.5,139.7,361.1,129.7,608.5c-14,309.2-109.7,540.7-319.2,760.1c-205.5,213.5-464.9,333.2-768.1,351.1c-237.4,14-391-16-604.5-117.7l-169.6-79.8L3815.4,195C2380.9-1237.5,2418.8-1195.6,2450.7-1371.2c16-83.8,91.8-179.6,175.6-223.4c71.8-37.9,213.5-39.9,279.3-8c23.9,14,630.4,606.5,1342.7,1316.8C5391.5,853.3,5557.1,1010.9,5644.9,1042.9c209.5,79.8,425,29.9,574.6-129.7c161.6-171.6,191.5-391,83.8-600.5c-33.9-63.8-600.5-642.4-1939.3-1977.1C2668.2-3356.3,2458.7-3557.8,2347-3613.7c-337.2-165.6-716.2-159.6-1061.4,16c-131.7,65.8-343.2,287.3-417,434.9c-163.6,325.2-163.6,676.3,0,1007.5c55.9,109.7,359.1,423,2876.9,2944.8c2166.7,2168.7,2851,2841,2962.7,2916.8c275.3,181.6,562.6,263.3,921.7,261.4c482.8-4,955.7-233.4,1256.9-608.5c117.7-147.6,263.4-432.9,313.2-612.5c49.9-187.5,49.9-658.4-2-837.9c-53.9-179.6-131.7-353.1-231.4-500.8c-57.9-85.8-812-855.9-2296.3-2342.2C4703.2-2905.4,4459.8-3156.8,4447.8-3222.6c-27.9-153.6,39.9-297.3,171.6-365.1c71.8-37.9,223.4-37.9,293.3-2c29.9,16,1051.4,1029.5,2270.4,2250.5C9090.4,570,9415.6,905.2,9515.4,1056.8c770.1,1175.1,343.2,2731.3-917.7,3337.8c-325.2,157.6-548.7,209.5-927.7,219.5C7458.4,4618.1,7314.8,4612.1,7215,4594.1z"/></g></g>
</svg>