<?xml version="1.0" encoding="utf-8"?>
<!DOCTYPE svg PUBLIC "-//W3C//DTD SVG 1.1//EN" "http://www.w3.org/Graphics/SVG/1.1/DTD/svg11.dtd">
<svg version="1.1" xmlns="http://www.w3.org/2000/svg" xmlns:xlink="http://www.w3.org/1999/xlink" width="20px" height="20px" x="0px" y="0px" viewBox="0 0 1000 1000" enable-background="new 0 0 1000 1000" xml:space="preserve">
<g><path style=" stroke:none;fill-rule:nonzero;fill:rgb(80,95,121);fill-opacity:1;" d="M500,11.5c-164.2,0-309.3,80.7-398.1,204.4v-82.3c0-25.3-20.6-45.8-45.9-45.8S10,108.3,10,133.6v183.2c0,25.3,20.6,45.8,45.9,45.8H255c25.4,0,45.9-20.5,45.9-45.8c0-25.3-20.6-45.8-45.9-45.8h-79.9C247.2,169.4,365.7,103.1,500,103.1c219.9,0,398.1,177.7,398.1,396.9c0,219.2-178.2,396.9-398.1,396.9c-185.3,0-340.6-126.4-385-297.4l-0.8,0.2c-6.2-18-22.8-31.1-43-31.1c-25.4,0-45.9,20.5-45.9,45.8c0,4.5,1.4,8.6,2.6,12.7l-0.5,0.2c0.3,1.1,0.9,2.1,1.2,3.2c0.3,0.9,0.6,1.8,1,2.6C87.8,838.1,275.9,988.5,500,988.5c270.6,0,490-218.7,490-488.5C990,230.2,770.6,11.5,500,11.5z M500,217.6c-25.4,0-45.9,20.5-45.9,45.8v274.8c0,25.3,20.6,45.8,45.9,45.8c0,0,0,0,0,0h199.1c25.4,0,45.9-20.5,45.9-45.8c0-25.3-20.6-45.8-45.9-45.8l-153.1,0v-229C545.9,238.1,525.4,217.6,500,217.6z"/></g>
</svg>