<?xml version="1.0" encoding="utf-8"?>
<!DOCTYPE svg PUBLIC "-//W3C//DTD SVG 1.1//EN" "http://www.w3.org/Graphics/SVG/1.1/DTD/svg11.dtd">
<svg version="1.1" xmlns="http://www.w3.org/2000/svg" xmlns:xlink="http://www.w3.org/1999/xlink" width="20px" height="20px" x="0px" y="0px" viewBox="0 0 1000 1000" enable-background="new 0 0 1000 1000" xml:space="preserve">
<g><path style=" stroke:none;fill-rule:nonzero;fill:rgb(80,95,121);fill-opacity:1;" d="M10,500c0-54.1,43.9-98,98-98c54.1,0,98,43.9,98,98c0,54.1-43.9,98-98,98C53.9,598,10,554.1,10,500z M402,500c0-54.1,43.9-98,98-98c54.1,0,98,43.9,98,98c0,54.1-43.9,98-98,98C445.9,598,402,554.1,402,500z M794,500c0-54.1,43.9-98,98-98c54.1,0,98,43.9,98,98c0,54.1-43.9,98-98,98C837.9,598,794,554.1,794,500z"/></g>
</svg>